<?xml version="1.0" encoding="utf-8"?>
<!-- Generator: Adobe Illustrator 15.0.0, SVG Export Plug-In . SVG Version: 6.00 Build 0)  -->
<!DOCTYPE svg PUBLIC "-//W3C//DTD SVG 1.1//EN" "http://www.w3.org/Graphics/SVG/1.1/DTD/svg11.dtd">
<svg version="1.1" id="Ebene_1" xmlns="http://www.w3.org/2000/svg" xmlns:xlink="http://www.w3.org/1999/xlink" x="0px" y="0px"
	 width="112.997px" height="110.927px" viewBox="0 0 112.997 110.927" enable-background="new 0 0 112.997 110.927"
	 xml:space="preserve">
<g>
	<path fill-rule="evenodd" clip-rule="evenodd" fill="#8C7F7F" d="M60.061,96.869c15.826,0,88.733,5.332,31.107,13.848
		c-9.164,1.355-48.24-5.791-48.24-5.791l0,0C-41.486,104.926,17.397,96.869,60.061,96.869L60.061,96.869z"/>
	<path fill-rule="evenodd" clip-rule="evenodd" fill="#1A0000" d="M44.054,86.178c0.181,0.703,0.372,1.41,0.567,2.133
		c0.541,2.006,1.156,4.322-0.016,6.236c-1.049,1.711-2.954,2.236-4.836,2.367c-2.35,0.162-5.035-0.158-7.37-0.447
		c-1.26-0.156-2.215-1.141-2.333-2.404c-0.909-9.807-2.03-19.941-1.571-29.792c0.504-10.81,3.063-20.817,6.47-31.044
		c0.44-1.319,1.804-2.077,3.156-1.754c6.048,1.447,11.631,5.174,16.506,8.914c3.053,2.342,5.981,4.831,8.994,7.22
		c2.334,1.851,4.955,3.877,7.626,5.206c7.542,3.751,15.463,6.702,22.977,10.475c6.096,3.062,13.075,7.253,15.908,13.781
		c0.295,0.679,0.543,1.377,0.741,2.091c1.237,4.462,1.854,8.781,0.825,13.353c-0.584,2.598-1.631,5.045-2.745,7.453
		c-4.146,8.961-16.591,11.123-25.43,10.738C68.672,110.057,53.989,97.855,44.054,86.178L44.054,86.178z"/>
	<path fill-rule="evenodd" clip-rule="evenodd" fill="#F3CE93" d="M37.5,34.071C49.744,37,60.985,50.69,70.059,55.204
		c16.439,8.177,35.011,13.029,38.24,24.669c2.391,8.613,1.113,12.742-1.769,18.971c-3.697,7.986-15.703,9.504-22.89,9.191
		c-16.868-0.736-33.37-17.666-41.539-28.578c-3.801-5.078-6.495-11.195-6.657-11.231c-0.887,2.073,0.512,8.56,4.986,13.332
		c1.234,10.635,7.076,14.084-7.704,12.258C30.449,69.222,29.307,58.664,37.5,34.071L37.5,34.071z"/>
	<path fill-rule="evenodd" clip-rule="evenodd" fill="#E8A034" d="M102.538,103.596c-5.269,3.865-13.461,4.676-18.896,4.439
		c-16.868-0.736-33.37-17.666-41.539-28.578c-3.801-5.078-6.495-11.195-6.657-11.231c-0.887,2.073,0.512,8.56,4.986,13.332
		c1.234,10.635,7.076,14.084-7.704,12.258c-2.223-23.992-3.362-34.629,4.189-57.966c11.805,3.464,22.633,16.458,31.428,20.832
		c16.439,8.177,35.011,13.029,38.24,24.669c2.391,8.613,1.112,12.742-1.77,18.969C104.242,101.563,103.465,102.648,102.538,103.596
		L102.538,103.596z"/>
	<path fill-rule="evenodd" clip-rule="evenodd" fill="#D3822A" d="M83.454,108.023c-9.094-0.461-18.071-5.605-25.686-11.951
		c-0.724-4.381,1.435-1.791,2.832-5.031c1.611-3.734-0.324-9.287,8.659-14.707c0.7-0.423,1.729,0.425,2.782,0.902
		c-6.957,17.076,11.847,23.188,22.436,20.404C98.253,96.648,91.873,103.607,83.454,108.023L83.454,108.023z"/>
	<path fill-rule="evenodd" clip-rule="evenodd" fill="#D3822A" d="M50.089,88.867c-3.138-3.283-5.848-6.553-7.987-9.41
		c-3.801-5.078-6.495-11.195-6.657-11.231c-0.887,2.073,0.512,8.56,4.986,13.332c1.234,10.635,7.076,14.084-7.704,12.258
		c-1.78-19.208-2.866-29.854,0.647-45.312c4.073-1.291,14.767-4.231,22.942-1.252c0,0-6.778,13.084-14.134,11.494
		c-7.355-1.591-1.921,15.593,5.561,24.954C48.916,85.168,49.679,86.947,50.089,88.867L50.089,88.867z"/>
	<path fill-rule="evenodd" clip-rule="evenodd" fill="#B35F1F" d="M32.485,52.846c0.081-0.447,0.167-0.897,0.256-1.351
		c4.84-1.159,18.311-4.118,21.814-2.074c-0.278,0.264-6.816,8.079-14.185,6.193C36.282,54.567,33.845,53.547,32.485,52.846
		L32.485,52.846z"/>
	<path fill-rule="evenodd" clip-rule="evenodd" fill="#B35F1F" d="M44.142,82.084c-0.727-0.904-1.408-1.783-2.04-2.626
		c-2.432-3.249-4.411-6.922-5.563-9.157C41.231,73.445,43.415,77.887,44.142,82.084L44.142,82.084z M32.152,87.561
		c-0.045-0.5-0.089-0.994-0.132-1.484c2.128-0.051,5.952-0.152,5.959-0.152c-0.64-5.434-2.5-8.006-2.746-15.272
		c0.269,2.926,1.896,7.384,5.198,10.907c1.038,8.941,5.331,12.803-2.112,12.721c0.011-0.965,0.014-2.844-0.075-4.855
		c-0.424,0.352-0.994,0.549-1.664,0.453C35.266,89.693,33.437,88.543,32.152,87.561L32.152,87.561z M35.202,69.476v0.003V69.476
		L35.202,69.476L35.202,69.476z"/>
	<path fill-rule="evenodd" clip-rule="evenodd" fill="#ECD19C" d="M66.799,102.57c-12.224-7.516-17.612-13.496-24.697-23.113
		c-3.762-5.106-6.495-11.195-6.657-11.231c-0.065,0.153-0.118,0.331-0.159,0.529v0c0,0-2.488-10.2-2.285-15.027
		c0.07-0.521,0.145-1.042,0.222-1.563c1.116-3.602,14.959,1.043,14.959,1.043C46.3,71.582,54.511,78.034,67.714,91.117
		c-2.302,9.201,12.755,15,11.074,16.365S71.201,105.785,66.799,102.57L66.799,102.57z"/>
	<path fill-rule="evenodd" clip-rule="evenodd" fill="#BFA97E" d="M61.866,85.355c1.813,1.803,3.769,3.701,5.849,5.762
		c-2.262,9.037,12.224,14.793,11.146,16.289c-7.495-1.617-14.765-6.061-21.093-11.334c-0.724-4.381,1.435-1.791,2.832-5.031
		C61.294,89.432,61.331,87.484,61.866,85.355L61.866,85.355z"/>
	<path fill-rule="evenodd" clip-rule="evenodd" fill="#BFA97E" d="M50.201,89.439c-2.784-2.975-5.31-6.197-8.099-9.982
		c-3.762-5.106-6.495-11.195-6.657-11.231c-0.065,0.153-0.118,0.331-0.159,0.529v0c0,0-2.488-10.2-2.285-15.027
		c0.07-0.521,0.145-1.042,0.222-1.563c1.116-3.602,14.959,1.043,14.959,1.043c-0.149,1.452-0.234,2.83-0.26,4.142
		c-1.788,1.177-3.743,1.829-5.741,1.397c-6.722-1.454-2.762,12.771,3.68,22.376c0.827-5.271,2.415-12.59,2.959-15.052
		c1.208,4.844,3.582,8.773,6.874,12.702c1.031,5.698,0.897,11.258-1.423,12.309c-0.635,0.287-1.256,0.49-1.857,0.615
		C51.655,90.957,50.919,90.205,50.201,89.439L50.201,89.439L50.201,89.439z"/>
	<path fill-rule="evenodd" clip-rule="evenodd" fill="#8C7B5C" d="M33.083,53.14c0.046-0.325,0.093-0.65,0.142-0.975
		c0.149-0.483,0.53-0.816,1.073-1.034c0.403-0.092,0.833-0.188,1.288-0.288c4.254-0.435,12.599,2.365,12.599,2.365
		c-0.046,0.449-0.086,0.89-0.12,1.324c-2.251,1.124-4.913,1.793-7.693,1.082C36.823,54.706,34.519,53.817,33.083,53.14L33.083,53.14
		z"/>
	<path fill-rule="evenodd" clip-rule="evenodd" fill="#1A0000" d="M54.167,64.051l4.148-0.879c0.768-0.163,1.461,0.301,1.985,0.885
		c0.525,0.583,0.754,1.288,0.671,2.069c0.917-1.589,2.8-0.756,2.563,0.951c-0.251,1.804-0.529,3.605-0.824,5.407
		c-0.465,2.835-0.968,5.668-1.347,8.515c-0.8,6.012-0.794,11.467-0.095,17.5c0.091,0.783-0.134,1.494-0.659,2.084
		s-1.205,0.895-1.995,0.895h-7.111c-1.371,0-2.509-1.023-2.656-2.385c-0.677-6.27-1.223-12.539-1.102-18.852
		c0.092-4.828,1.148-9.612,1.148-14.445c0-1.747,3.04-2.587,2.624,0.578C51.694,65.037,52.818,64.051,54.167,64.051L54.167,64.051z"
		/>
	<path fill-rule="evenodd" clip-rule="evenodd" fill="#D3822A" d="M52.116,61.658h9.397c-1.649,15.506-4.694,21.643-2.898,37.149
		h-7.111C49.831,83.301,50.078,77.164,52.116,61.658L52.116,61.658z"/>
	<path fill-rule="evenodd" clip-rule="evenodd" fill="#E8A034" d="M52.116,61.658h9.397c-1.649,15.506-4.694,21.643-2.898,37.149
		h-6.167c-0.397-3.686,0.509-6.842,0.246-9.721C51.848,79.854,50.562,73.479,52.116,61.658L52.116,61.658z"/>
	<path fill-rule="evenodd" clip-rule="evenodd" fill="#F3CE93" d="M60.971,66.126c-1.318,9.729-3.015,15.747-2.899,24.632
		c-1.093-1.541,0.24-14.12,1.135-19.836C60.095,65.247,60.959,66.113,60.971,66.126L60.971,66.126z"/>
	<path fill-rule="evenodd" clip-rule="evenodd" fill="#D3822A" d="M58.072,90.758c0.011,0.82,0.037,1.664,0.08,2.539
		c-1.649,0.277-4.118,0.078-5.481-0.68c-0.769-0.428-1.401-0.854-1.875-1.26c-0.061-0.773-0.114-1.525-0.161-2.26
		C50.644,89.098,54.737,89.029,58.072,90.758L58.072,90.758z"/>
	<path fill-rule="evenodd" clip-rule="evenodd" fill="#1A0000" d="M112.154,87.436c-0.461,7.646-2.888,15.121-9.506,19.602
		c-6.052,4.094-13.712,4.342-20.729,3.498c-7.569-0.91-15-3.041-22.302-5.166c-6.695-1.949-13.396-4.084-20.25-5.395
		c-3.308-0.635-9.125-1.521-12.27-0.086c-3.058,1.395-6.695,0.037-8.091-3.02c-1.396-3.059-0.039-6.695,3.019-8.092
		c5.977-2.729,13.362-2,19.638-0.799c2.447,0.469,4.874,1.033,7.287,1.652c4.728,1.217,9.394,2.646,14.081,4.012
		c6.63,1.93,13.476,3.941,20.346,4.766c3.729,0.449,9.177,0.713,12.427-1.486c3.039-2.057,4.221-5.281,4.475-8.695
		c0.012-0.162,0.022-0.322,0.033-0.482c0.123-2.051,2.347-3.096,2.091,0.785c-0.099,1.498,2.032,2.354,3.328,2.432
		C109.076,91.164,112.356,84.088,112.154,87.436L112.154,87.436z"/>
	<path fill-rule="evenodd" clip-rule="evenodd" fill="#E8A034" d="M109.487,87.273c-0.408,6.781-2.445,13.564-8.337,17.551
		c-5.465,3.699-12.59,3.818-18.912,3.059c-7.338-0.883-14.785-3.016-21.874-5.08c-6.727-1.957-13.615-4.137-20.495-5.453
		c-3.966-0.76-10.071-1.631-13.881,0.107c-1.721,0.787-3.766,0.023-4.551-1.697c-0.786-1.723-0.023-3.766,1.698-4.553
		c5.391-2.461,12.379-1.686,18.026-0.605c2.379,0.457,4.755,1.008,7.124,1.617c4.704,1.211,9.378,2.645,13.999,3.988
		c6.704,1.951,13.836,4.021,20.773,4.855c4.47,0.535,10.343,0.711,14.243-1.928c3.808-2.578,4.971-7.408,5.294-11.754
		c0.013-0.174,0.024-0.348,0.035-0.52c0.114-1.889,1.747-3.336,3.636-3.223S109.601,85.385,109.487,87.273L109.487,87.273z"/>
	<path fill-rule="evenodd" clip-rule="evenodd" fill="#D3822A" d="M85.419,108.174c-1.075-0.064-2.14-0.166-3.182-0.291
		c-7.338-0.883-14.785-3.016-21.874-5.08c-6.727-1.957-13.615-4.137-20.495-5.453c-3.966-0.76-10.071-1.631-13.881,0.107
		c-1.721,0.787-3.766,0.023-4.551-1.697c-0.323-0.709-0.384-1.471-0.224-2.18c8.824-6.314,64.136,14.492,64.136,14.492
		C85.374,108.107,85.395,108.141,85.419,108.174L85.419,108.174z"/>
	<path fill-rule="evenodd" clip-rule="evenodd" fill="#F3CE93" d="M109.487,87.273c-0.408,6.781-2.445,13.564-8.337,17.551
		c-3.027,2.049-6.564,2.998-10.192,3.311c21.532-7.195,16.242-24.305,16.241-24.307C108.607,84.324,109.582,85.713,109.487,87.273
		L109.487,87.273z"/>
	<path fill-rule="evenodd" clip-rule="evenodd" fill="#1A0000" d="M34.104,89.65c0,0,3.016,2.215,0.304,6.912
		c-1.241,2.148,0.789,1.143,2.6,1.307c2.147,0.193,4.271,1.326,4.271,1.326s2.883-7.059,0.596-9.742
		C39.59,86.77,35.308,87.063,34.104,89.65L34.104,89.65z"/>
	<path fill-rule="evenodd" clip-rule="evenodd" fill="#1A0000" d="M23.189,90.695c-6.507,5.574-1.788,9.236,2.883,7.506
		s1.938,0.994,1.739-1.045c-0.198-2.037-1.341-6.162-2.733-7.404L23.189,90.695L23.189,90.695z"/>
	<path fill-rule="evenodd" clip-rule="evenodd" fill="#1A0000" d="M47.904,92.121c0,0,2.644,3.125-0.813,7.305
		c-1.582,1.912,0.587,1.258,2.346,1.721c2.085,0.551,3.99,2.02,3.99,2.02s4.02-6.477,2.213-9.504S49.522,89.77,47.904,92.121
		L47.904,92.121z"/>
	<path fill-rule="evenodd" clip-rule="evenodd" fill="#1A0000" d="M62.914,54.66c-0.545,1.139-0.324,2.695-3.245,1.296
		c-2.922-1.398-4.849-3.455-4.304-4.594C57.313,47.29,64.137,52.102,62.914,54.66L62.914,54.66z"/>
	<path fill-rule="evenodd" clip-rule="evenodd" fill="#1A0000" d="M71.158,59.333c-0.28,0.778-0.034,1.778-2.03,1.059
		s-3.388-1.933-3.106-2.711C67.023,54.898,71.788,57.586,71.158,59.333L71.158,59.333z"/>
	<path fill-rule="evenodd" clip-rule="evenodd" fill="#1A0000" d="M81.478,64.793c-0.444,0.778-0.054,1.778-3.215,1.059
		c-3.16-0.719-5.363-1.933-4.919-2.711C74.931,60.358,82.475,63.046,81.478,64.793L81.478,64.793z"/>
	<path fill-rule="evenodd" clip-rule="evenodd" fill="#1A0000" d="M88.432,68.305c-0.221,0.611-0.027,1.396-1.594,0.831
		c-1.567-0.564-2.659-1.518-2.439-2.128C85.186,64.823,88.926,66.933,88.432,68.305L88.432,68.305z"/>
	<path fill-rule="evenodd" clip-rule="evenodd" fill="#1A0000" d="M64.744,59.672c-0.154,0.426-0.02,0.974-1.112,0.58
		c-1.093-0.394-1.854-1.059-1.701-1.485C62.479,57.244,65.087,58.716,64.744,59.672L64.744,59.672z"/>
	<path fill-rule="evenodd" clip-rule="evenodd" fill="#1A0000" d="M70.613,63.599c-0.153,0.426-0.019,0.973-1.111,0.58
		c-1.094-0.394-1.854-1.059-1.701-1.484C68.349,61.17,70.958,62.642,70.613,63.599L70.613,63.599z"/>
	<path fill-rule="evenodd" clip-rule="evenodd" fill="#1A0000" d="M80.5,72.333c-0.876,0.068-2.851,1.024-3.623,1.437
		c-2.078,1.11-4.06,2.572-5.661,4.303c-4.71,5.087-4.904,11.107-2.02,17.238c0.313,0.666,0.025,1.465-0.64,1.777
		c-0.666,0.313-1.464,0.025-1.777-0.639c-1.741-3.701-2.659-7.75-1.89-11.82c0.604-3.193,2.171-6,4.366-8.371
		c1.805-1.95,4.021-3.594,6.362-4.845c1.185-0.633,3.322-1.639,4.677-1.744c0.733-0.056,1.378,0.496,1.434,1.229
		C81.786,71.633,81.234,72.277,80.5,72.333L80.5,72.333z"/>
	<path fill-rule="evenodd" clip-rule="evenodd" fill="#1A0000" d="M65.976,97.076c0,0,2.604,2.688-0.853,6.865
		c-1.582,1.914,0.587,1.26,2.346,1.723c2.086,0.549,3.991,2.02,3.991,2.02s4.019-6.479,2.212-9.506S67.594,94.725,65.976,97.076
		L65.976,97.076z"/>
	<path fill-rule="evenodd" clip-rule="evenodd" fill="#1A0000" d="M98.695,97.313c0,0,3.547-1.193,5.828,3.727
		c1.044,2.252,1.389,0.014,2.564-1.375c1.395-1.645,1.604-6.662,1.604-6.662c-0.054-2.137-6.383-5.625-7.521-0.258
		C100.032,98.109,97.27,94.838,98.695,97.313L98.695,97.313z"/>
	<path fill-rule="evenodd" clip-rule="evenodd" fill="#421E0A" d="M103.866,99.832c0.228,0.355,0.448,0.756,0.657,1.207
		c0.085,0.182,0.164,0.334,0.24,0.461c1.978-2.455,3.207-5.387,3.928-8.5c-0.016-0.557-0.457-1.205-1.12-1.764
		c-0.016,0.105-0.033,0.215-0.051,0.322c-0.008,0.045-0.015,0.09-0.022,0.137c-0.017,0.096-0.034,0.191-0.052,0.287
		c-0.013,0.066-0.025,0.131-0.038,0.197c-0.019,0.092-0.037,0.184-0.058,0.277c-0.016,0.072-0.032,0.146-0.049,0.221
		c-0.018,0.074-0.035,0.15-0.054,0.229c-0.021,0.09-0.045,0.182-0.068,0.273c-0.018,0.068-0.036,0.137-0.055,0.207
		c-0.026,0.098-0.054,0.197-0.083,0.295c-0.017,0.061-0.035,0.121-0.054,0.182c-0.03,0.105-0.063,0.209-0.097,0.314
		c-0.018,0.053-0.035,0.107-0.053,0.16c-0.037,0.113-0.076,0.229-0.116,0.342c-0.019,0.053-0.038,0.105-0.057,0.158
		c-0.044,0.119-0.089,0.238-0.136,0.359c-0.016,0.041-0.032,0.082-0.049,0.123c-0.052,0.131-0.104,0.26-0.16,0.391l-0.047,0.107
		c-0.057,0.133-0.116,0.266-0.178,0.396l-0.049,0.107c-0.063,0.133-0.129,0.268-0.197,0.402l-0.044,0.088
		c-0.073,0.145-0.149,0.289-0.228,0.432l-0.042,0.078c-0.079,0.143-0.161,0.287-0.245,0.432l-0.046,0.076
		c-0.085,0.143-0.173,0.285-0.263,0.428l-0.042,0.066c-0.095,0.148-0.193,0.299-0.295,0.447l-0.045,0.064
		c-0.103,0.15-0.208,0.299-0.317,0.447l-0.044,0.061c-0.107,0.145-0.218,0.291-0.332,0.436L103.866,99.832L103.866,99.832z"/>
	<path fill-rule="evenodd" clip-rule="evenodd" fill="#1A0000" d="M98.067,72.803c-0.369,1.025-0.045,2.342-2.675,1.395
		c-2.629-0.947-4.461-2.546-4.092-3.571C92.621,66.961,98.896,70.501,98.067,72.803L98.067,72.803z"/>
	<path fill-rule="evenodd" clip-rule="evenodd" fill="#1A0000" d="M105.442,81.68c-0.844,0.301-1.199,1.313-3.128-1.293
		c-1.928-2.605-2.807-4.961-1.963-5.262C103.369,74.049,107.337,81.004,105.442,81.68L105.442,81.68z"/>
	<path fill-rule="evenodd" clip-rule="evenodd" fill="#1A0000" d="M91.781,76.491c-0.153,0.426-0.019,0.974-1.111,0.58
		c-1.093-0.394-1.854-1.058-1.701-1.484C89.517,74.063,92.125,75.535,91.781,76.491L91.781,76.491z"/>
	<path fill-rule="evenodd" clip-rule="evenodd" fill="#1A0000" d="M97.65,80.418c-0.153,0.426-0.019,0.973-1.111,0.578
		c-1.093-0.393-1.854-1.058-1.701-1.483C95.386,77.989,97.995,79.46,97.65,80.418L97.65,80.418z"/>
	<path fill-rule="evenodd" clip-rule="evenodd" fill="#1A0000" d="M58.422,70.087c-0.404,0.846-0.24,2.002-2.411,0.964
		c-2.171-1.039-3.602-2.567-3.197-3.413C54.262,64.612,59.332,68.188,58.422,70.087L58.422,70.087z"/>
	<path fill-rule="evenodd" clip-rule="evenodd" fill="#1A0000" d="M54.862,72.393c-0.154,0.426-0.019,0.973-1.111,0.58
		c-1.093-0.394-1.855-1.059-1.701-1.484C52.599,69.964,55.207,71.436,54.862,72.393L54.862,72.393z"/>
	<path fill-rule="evenodd" clip-rule="evenodd" fill="#1A0000" d="M57.74,75.965c-0.013,0.728,0.476,1.49-1.391,1.458
		c-1.866-0.032-3.369-0.649-3.356-1.376C53.039,73.445,57.768,74.332,57.74,75.965L57.74,75.965z"/>
	<path fill-rule="evenodd" clip-rule="evenodd" fill="#1A0000" d="M57.248,81.289c-0.153,0.426-0.019,0.973-1.111,0.58
		c-1.093-0.395-1.854-1.059-1.701-1.484C54.984,78.86,57.592,80.332,57.248,81.289L57.248,81.289z"/>
	<path fill-rule="evenodd" clip-rule="evenodd" fill="#1A0000" d="M81.604,78.064c0.088,1.086,0.927,2.15-1.859,2.375
		c-2.785,0.225-5.114-0.475-5.202-1.561C74.23,74.995,81.408,75.626,81.604,78.064L81.604,78.064z"/>
	<path fill-rule="evenodd" clip-rule="evenodd" fill="#1A0000" d="M75.198,83.236c-0.153,0.426-0.019,0.973-1.111,0.58
		c-1.093-0.395-1.854-1.059-1.701-1.484C72.934,80.807,75.542,82.279,75.198,83.236L75.198,83.236z"/>
	<path fill-rule="evenodd" clip-rule="evenodd" fill="#1A0000" d="M80.564,83.615c0.195,0.518,0.755,0.92-0.574,1.42
		s-2.564,0.486-2.76-0.031C76.533,83.15,80.126,82.451,80.564,83.615L80.564,83.615z"/>
	<path fill-rule="evenodd" clip-rule="evenodd" fill="#1A0000" d="M76.873,88.275c0.088,1.086,0.928,2.15-1.858,2.375
		s-5.116-0.475-5.203-1.561C69.499,85.207,76.676,85.836,76.873,88.275L76.873,88.275z"/>
	<path fill-rule="evenodd" clip-rule="evenodd" fill="#1A0000" d="M87.231,83.615c-0.013,0.727,0.476,1.488-1.391,1.457
		c-1.866-0.033-3.369-0.648-3.356-1.377C82.529,81.094,87.259,81.98,87.231,83.615L87.231,83.615z"/>
	<path fill-rule="evenodd" clip-rule="evenodd" fill="#1A0000" d="M34.476,73.023c-0.405,0.846-0.241,2.002-2.411,0.964
		s-3.602-2.567-3.197-3.413C30.315,67.549,35.385,71.124,34.476,73.023L34.476,73.023z"/>
	<path fill-rule="evenodd" clip-rule="evenodd" fill="#1A0000" d="M34.109,69.141c-0.109,0.302-0.013,0.689-0.787,0.411
		c-0.773-0.279-1.313-0.749-1.204-1.051C32.507,67.423,34.354,68.464,34.109,69.141L34.109,69.141z"/>
	<path fill-rule="evenodd" clip-rule="evenodd" fill="#1A0000" d="M33.792,78.902c-0.013,0.727,0.476,1.491-1.391,1.458
		s-3.369-0.648-3.356-1.376C29.091,76.381,33.821,77.268,33.792,78.902L33.792,78.902z"/>
	<path fill-rule="evenodd" clip-rule="evenodd" fill="#1A0000" d="M33.301,84.225c-0.154,0.426-0.019,0.975-1.111,0.58
		c-1.093-0.395-1.855-1.059-1.701-1.484C31.037,81.797,33.646,83.268,33.301,84.225L33.301,84.225z"/>
	<path fill-rule="evenodd" clip-rule="evenodd" fill="#1A0000" d="M83.632,100.506c0,0,2.778,2.506-0.392,6.906
		c-1.451,2.014,0.67,1.217,2.456,1.563c2.117,0.408,4.116,1.748,4.116,1.748s3.577-6.732,1.572-9.633
		C89.38,98.191,85.09,98.051,83.632,100.506L83.632,100.506z"/>
	<path fill-rule="evenodd" clip-rule="evenodd" fill="#1A0000" d="M108.557,86.35c-0.013,0.727,0.477,1.49-1.39,1.457
		s-3.369-0.648-3.356-1.377C103.856,83.828,108.585,84.715,108.557,86.35L108.557,86.35z"/>
	<path fill-rule="evenodd" clip-rule="evenodd" fill="#F3CE93" d="M91.792,79.803c2.085,1.424,3.248,3.352,2.597,4.303
		c-0.65,0.951-1.689-1.154-3.774-2.58c-2.085-1.424-4.426-1.627-3.775-2.579S89.707,78.378,91.792,79.803L91.792,79.803z
		 M94.929,85.063c0.363,0,0.658,0.4,0.658,0.895s-0.295,0.895-0.658,0.895c-0.364,0-0.659-0.4-0.659-0.895
		S94.565,85.063,94.929,85.063L94.929,85.063z"/>
	<path fill-rule="evenodd" clip-rule="evenodd" fill="#1A0000" d="M46.393,15.002c2.029-2.661,4.343-5.344,6.678-7.73
		c2.356-2.408,7.334-7.384,11.08-5.766c1.027,0.444,1.744,1.278,2.177,2.295c2.161,5.082,1.973,14.286,1.358,19.771
		c-0.126,1.129-1.08,1.97-2.216,1.954c-3.127-0.043-6.655-0.442-9.692-1.111c-4.1-0.904-10.055-3.004-9.834-8.173
		C45.964,15.772,46.108,15.375,46.393,15.002L46.393,15.002z"/>
	<path fill-rule="evenodd" clip-rule="evenodd" fill="#F3CE93" d="M48.142,16.336c0,0,13.564-17.785,16.163-11.674
		S65.5,23.328,65.5,23.328S47.853,23.078,48.142,16.336L48.142,16.336z"/>
	<path fill-rule="evenodd" clip-rule="evenodd" fill="#E8A034" d="M48.142,16.336c0,0,3.373-4.422,7.077-8.099
		c3.492-3.314,7.086-5.66,8.298-2.811c2.209,5.193,1.527,15.04,1.273,17.879C61.501,23.173,47.888,22.265,48.142,16.336
		L48.142,16.336z"/>
	<path fill-rule="evenodd" clip-rule="evenodd" fill="#1A0000" d="M48.508,18.587c1.93-2.454,4.009-4.878,6.192-7.107
		c1.507-1.54,3.203-3.143,4.995-4.344c1.42-0.953,3.406-1.976,5.129-1.23c0.819,0.354,1.376,1.027,1.72,1.835
		c0.042,0.097,0.067,0.184,0.086,0.288c0.236,1.319,0.38,2.66,0.469,3.996c0.173,2.596,0.148,5.231,0.011,7.829
		c-0.063,1.202-0.145,2.425-0.278,3.622c-0.076,0.688-0.657,1.2-1.349,1.19c-1.009-0.014-2.04-0.082-3.045-0.163
		c-2.168-0.176-4.36-0.463-6.484-0.934c-2.437-0.54-5.407-1.46-7.29-3.162C48.139,19.935,48.072,19.141,48.508,18.587L48.508,18.587
		z"/>
	<path fill-rule="evenodd" clip-rule="evenodd" fill="#7E6F53" d="M65.312,8.265c1.152,6.433,0.188,15.063,0.188,15.063
		S53.705,23.16,49.56,19.414C51.837,16.519,62.982,2.787,65.312,8.265L65.312,8.265z"/>
	<path fill-rule="evenodd" clip-rule="evenodd" fill="#AC9871" d="M65.333,8.387c1.118,6.419,0.167,14.941,0.167,14.941
		s-8.938-0.127-13.987-2.631C53.558,18.107,61.404,8.499,65.333,8.387L65.333,8.387z"/>
	<path fill-rule="evenodd" clip-rule="evenodd" fill="#1A0000" d="M32.485,18.726c0.323,0.749,0.487,1.546,0.476,2.362
		c-0.053,3.811-3.838,6.87-6.745,8.783c-2.598,1.709-5.751,3.34-8.657,4.497c-1.056,0.42-2.247-0.025-2.768-1.034
		C12.26,28.429,8.799,19.898,9.004,14.38c0.041-1.104,0.413-2.139,1.214-2.92c2.922-2.849,9.348,0.022,12.408,1.431
		c3.033,1.396,6.151,3.076,8.998,4.837C32.022,17.975,32.298,18.294,32.485,18.726L32.485,18.726z"/>
	<path fill-rule="evenodd" clip-rule="evenodd" fill="#F3CE93" d="M30.466,19.598c0,0-19.018-11.772-19.264-5.136
		c-0.247,6.636,5.544,17.863,5.544,17.863S33.143,25.793,30.466,19.598L30.466,19.598z"/>
	<path fill-rule="evenodd" clip-rule="evenodd" fill="#E8A034" d="M11.215,14.304c-0.004,0.052-0.011,0.103-0.013,0.157
		c-0.247,6.636,5.544,17.863,5.544,17.863s11.862-4.727,13.759-9.952c0.102-0.654,0.034-1.313-0.249-1.968
		C30.255,20.405,13.363,9.949,11.215,14.304L11.215,14.304z"/>
	<path fill-rule="evenodd" clip-rule="evenodd" fill="#1A0000" d="M10.208,18.138c0.033-0.878,0.313-1.706,0.952-2.33
		c1.343-1.311,3.563-1.064,5.23-0.681c2.103,0.483,4.258,1.375,6.216,2.275c2.835,1.304,5.642,2.826,8.321,4.429
		c0.605,0.362,0.825,1.127,0.505,1.756c-1.152,2.262-3.598,4.182-5.682,5.556c-1.816,1.198-3.761,2.249-5.724,3.187
		c-0.91,0.435-1.848,0.865-2.786,1.239c-0.643,0.256-1.368-0.015-1.685-0.63c-0.552-1.07-1.064-2.184-1.553-3.284
		c-1.055-2.378-2.02-4.83-2.785-7.317c-0.394-1.28-0.738-2.583-0.988-3.899C10.211,18.333,10.204,18.243,10.208,18.138
		L10.208,18.138z"/>
	<path fill-rule="evenodd" clip-rule="evenodd" fill="#7E6F53" d="M11.545,18.188c1.22,6.42,5.2,14.137,5.2,14.137
		s10.959-4.367,13.494-9.346C27.08,21.087,11.768,12.238,11.545,18.188L11.545,18.188z"/>
	<path fill-rule="evenodd" clip-rule="evenodd" fill="#AC9871" d="M11.586,18.394c1.265,6.378,5.16,13.931,5.16,13.931
		s6.049-2.411,10.199-5.692c0.384-0.466,0.708-0.94,0.953-1.421C25.493,23.773,16.063,18.312,11.586,18.394L11.586,18.394z"/>
	<path fill-rule="evenodd" clip-rule="evenodd" fill="#1A0000" d="M45.483,51.524c-22.041,3.233-28.388-1.654-32.394-23.39
		c-0.042-0.231,1.931,1.772,3.557,1.214c1.713-0.588,3.085-3.742,3.096-3.99c0.141-3.271-4.152-4.675-0.753-6.895
		c5.908-3.858,14.658-6.165,19.027-7.03c0.017-0.003,0.033-0.006,0.05-0.01c4.575-0.781,14.155-1.801,21.145-0.021
		c3.575,0.911-3.851,5.253-2.648,8.037c0.141,0.323,6.117,1.302,9.181,0.866c1.146-0.164,1.544-2.307,1.567-2.177
		c2.806,15.191,1.842,23.032-6.421,28.046c-1.386,0.842-7.295-4.963-9.108-4.26c-2.9,1.125-2.053,8.669-6.158,9.583
		C45.575,51.508,45.533,51.516,45.483,51.524L45.483,51.524z"/>
	<path fill-rule="evenodd" clip-rule="evenodd" fill="#F3CE93" d="M45.204,49.618c-21.113,3.097-26.432-1.281-30.22-21.833
		C13.845,21.61,25.84,15.812,38.39,13.323C51,11.169,64.276,12.304,65.417,18.479C69.219,39.071,66.292,44.917,45.204,49.618
		L45.204,49.618z"/>
	<path fill-rule="evenodd" clip-rule="evenodd" fill="#E8A034" d="M45.204,49.618c-21.112,3.097-26.432-1.281-30.22-21.833
		c-0.811-4.397,5.04-8.604,13.008-11.56c2.579-0.84,5.32-1.55,8.088-2.099c12.611-2.154,25.886-1.02,27.026,5.155
		c3.102,16.789,1.727,23.775-10.314,28.331C50.575,48.325,48.057,48.982,45.204,49.618L45.204,49.618z"/>
	<path fill-rule="evenodd" clip-rule="evenodd" fill="#D3822A" d="M63.184,19.709c0.507,2.789,0.887,5.303,1.11,7.578
		c-0.832,3.684-3.861,6.427-7.495,6.459c-4.304,0.037-7.828-3.747-7.869-8.45c-0.041-4.704,3.416-8.548,7.72-8.585
		C58.118,16.699,60.777,18.06,63.184,19.709L63.184,19.709z"/>
	<path fill-rule="evenodd" clip-rule="evenodd" fill="#B35F1F" d="M41.371,50.115c-17.948,1.979-22.84-3.082-26.388-22.33
		c-0.601-3.263,2.464-6.419,7.339-9.039c0.004,0.054,1.704,21.029,7.839,21.808C34.638,41.123,43.421,45.542,41.371,50.115
		L41.371,50.115z"/>
	<path fill-rule="evenodd" clip-rule="evenodd" fill="#D3822A" d="M17.021,22.559c1.291-1.353,3.114-2.637,5.302-3.813
		c0.004,0.054,1.704,21.029,7.839,21.808c3.384,0.43,9.227,3.06,10.993,6.293C25.024,48.152,20.396,42.727,17,24.304
		C16.892,23.718,16.903,23.136,17.021,22.559L17.021,22.559z"/>
	<path fill-rule="evenodd" clip-rule="evenodd" fill="#1A0000" d="M42.617,36.443c2.273-3.266,5.678-6.586,9.599-4.754
		c2.986,1.395,4.908,5.452,5.523,8.789c0.097,0.519,0.145,1.044,0.146,1.568c0.01,3.09-1.576,5.741-3.604,7.633
		c-2.343,2.185-5.389,3.525-8.429,4.086c-3.039,0.561-6.363,0.396-9.332-0.809c-2.569-1.043-4.997-2.953-6.091-5.843
		c-0.186-0.491-0.328-0.999-0.423-1.518c-0.264-1.428-0.345-2.956-0.23-4.391c0.159-1.983,0.718-3.999,1.98-5.422
		c1.341-1.513,3.164-1.998,5.074-1.747C38.791,34.292,40.813,35.291,42.617,36.443L42.617,36.443z"/>
	<path fill-rule="evenodd" clip-rule="evenodd" fill="#ECD19C" d="M43.16,39.172c7.19-11.815,13.692-3.503,14.579,1.305
		c0.888,4.809-5.598,10.036-12.259,11.266c-4.188,0.772-8.906-0.169-12.053-2.169c-1.858-1.182-3.169-2.732-3.498-4.518
		C29.041,40.248,32.008,31.127,43.16,39.172L43.16,39.172z"/>
	<path fill-rule="evenodd" clip-rule="evenodd" fill="#AC9871" d="M45.48,51.743c-4.188,0.773-8.906-0.168-12.053-2.169
		c-1.859-1.182-3.169-2.732-3.498-4.518c-0.671-3.635,0.861-9.73,6.466-9.017c0.8,0.764,1.365,1.992,1.571,3.747
		c0,0-2.302,6.013,0.995,5.832c3.296-0.181,4.845-2.999,4.845-2.999l4.984,1.235c0,0-1.564,2.024-2.996,1.571
		c-1.431-0.452-1.607-0.804-1.607-0.804s-1.331,2.21-2.034,2.235C41.451,46.882,39.527,51.728,45.48,51.743L45.48,51.743z"/>
	<path fill-rule="evenodd" clip-rule="evenodd" fill="#1A0000" d="M42.52,33.034c4.65-0.858,7.899-2.191,8.284-0.106
		s-2.659,6.717-7.309,7.576s-9.146-2.382-9.532-4.468C33.579,33.95,37.87,33.892,42.52,33.034L42.52,33.034z"/>
	<path fill-rule="evenodd" clip-rule="evenodd" fill="#1A0000" d="M22.917,21.499c4.144-1.167,8.537,1.56,9.811,6.087
		c1.274,4.528-1.053,9.145-5.196,10.311s-8.537-1.56-9.811-6.088c-2.493,2.777-4.027,1.447-3.676,0.002
		C14.704,29.094,20.211,22.26,22.917,21.499L22.917,21.499z"/>
	<path fill-rule="evenodd" clip-rule="evenodd" fill="#FFFF00" d="M25.592,22.634c-3.611-0.038-8.222,4.75-8.147,6.968
		c0.075,2.219,5.013,7.107,8.624,7.145c3.611,0.038,7.086-5.286,7.029-6.98C33.041,28.074,29.203,22.672,25.592,22.634
		L25.592,22.634z"/>
	<path fill-rule="evenodd" clip-rule="evenodd" fill="#FFFF79" d="M25.592,22.634c-2.18-0.023-4.723,1.712-6.38,3.579
		c-0.02,0.629,0.027,1.274,0.146,1.925c0.836,4.542,4.901,7.663,9.078,6.97c0.729-0.121,1.412-0.35,2.041-0.669
		c1.582-1.645,2.654-3.726,2.622-4.672C33.041,28.074,29.203,22.672,25.592,22.634L25.592,22.634z"/>
	<path fill-rule="evenodd" clip-rule="evenodd" fill="#1A0000" d="M44.354,39.938c0.567,3.074-1.465,6.026-4.539,6.594
		c-3.074,0.567-6.026-1.465-6.594-4.539c-0.1-0.544,0.261-1.069,0.805-1.169c0.544-0.101,1.069,0.261,1.169,0.805
		c0.366,1.984,2.271,3.295,4.255,2.929c1.984-0.366,3.295-2.271,2.929-4.255c-0.1-0.543,0.262-1.069,0.805-1.169
		C43.728,39.032,44.253,39.394,44.354,39.938L44.354,39.938z"/>
	<path fill-rule="evenodd" clip-rule="evenodd" fill="#1A0000" d="M44.354,39.938c0.366,1.984,2.271,3.295,4.255,2.929
		c1.984-0.366,3.295-2.271,2.929-4.255c-0.1-0.543,0.261-1.069,0.805-1.169c0.543-0.101,1.069,0.261,1.169,0.805
		c0.567,3.074-1.465,6.026-4.54,6.594c-0.046,0.008-0.092,0.016-0.138,0.023c-3.023,0.482-5.896-1.535-6.456-4.563
		c-0.1-0.543,0.262-1.069,0.805-1.169C43.728,39.032,44.253,39.394,44.354,39.938L44.354,39.938z"/>
	<path fill-rule="evenodd" clip-rule="evenodd" fill="#F3CE93" d="M47.312,34.036c0.599-0.392,1.237-0.476,1.425-0.187
		c0.188,0.288-0.144,0.839-0.742,1.231c-0.598,0.392-1.236,0.475-1.425,0.187C46.381,34.978,46.714,34.427,47.312,34.036
		L47.312,34.036z"/>
	<path fill-rule="evenodd" clip-rule="evenodd" fill="#1A0000" d="M40.832,15.31c0.278,0.781,1.104,1.398-0.899,2.111
		c-2.003,0.712-3.853,0.657-4.13-0.124C34.81,14.504,40.208,13.557,40.832,15.31L40.832,15.31z"/>
	<path fill-rule="evenodd" clip-rule="evenodd" fill="#1A0000" d="M36.08,19.652c0.152,0.427,0.605,0.766-0.492,1.156
		c-1.097,0.39-2.109,0.359-2.261-0.068C32.783,19.211,35.739,18.692,36.08,19.652L36.08,19.652z"/>
	<path fill-rule="evenodd" clip-rule="evenodd" fill="#1A0000" d="M45.436,17.941c0.152,0.428,0.604,0.766-0.493,1.156
		c-1.097,0.39-2.109,0.359-2.261-0.068C42.139,17.5,45.094,16.981,45.436,17.941L45.436,17.941z"/>
	<path fill-rule="evenodd" clip-rule="evenodd" fill="#1A0000" d="M42.401,21.734c0.278,0.781,1.104,1.398-0.899,2.111
		c-2.003,0.712-3.852,0.657-4.13-0.124C36.378,20.929,41.777,19.981,42.401,21.734L42.401,21.734z"/>
	<path fill-rule="evenodd" clip-rule="evenodd" fill="#1A0000" d="M51.616,12.189l-5.418,11.433l1.555-11.662
		C47.753,11.96,51.062,11.313,51.616,12.189L51.616,12.189z"/>
	<path fill-rule="evenodd" clip-rule="evenodd" fill="#1A0000" d="M26.008,16.878l8.217,9.185l-4.63-10.637
		C29.595,15.425,26.253,15.87,26.008,16.878L26.008,16.878z"/>
	<path fill-rule="evenodd" clip-rule="evenodd" fill="#1A0000" d="M21.612,47.208l6.393-5.257L20,43.581
		C20,43.581,20.603,46.97,21.612,47.208L21.612,47.208z"/>
	<path fill-rule="evenodd" clip-rule="evenodd" fill="#1A0000" d="M64.888,40.562l-6.393-5.257l7.869,1.68
		C66.365,36.985,65.898,40.324,64.888,40.562L64.888,40.562z"/>
	<path fill-rule="evenodd" clip-rule="evenodd" fill="#1A0000" d="M56.089,15.265c-4.305,0.038-7.762,3.882-7.721,8.585
		c0.041,4.703,3.564,8.487,7.869,8.45s7.762-3.882,7.721-8.585c3.169,1.97,4.271,0.265,3.531-1.024
		C66.096,20.264,58.899,15.24,56.089,15.265L56.089,15.265z"/>
	<path fill-rule="evenodd" clip-rule="evenodd" fill="#FFFF00" d="M53.837,17.102c3.457-1.045,9.222,2.265,9.769,4.416
		c0.548,2.151-2.83,8.224-6.286,9.269c-3.457,1.045-8.281-3.097-8.699-4.739C48.204,24.405,50.38,18.147,53.837,17.102
		L53.837,17.102z"/>
	<path fill-rule="evenodd" clip-rule="evenodd" fill="#FFFF79" d="M53.837,17.102c2.086-0.63,5.013,0.325,7.126,1.655
		c0.194,0.599,0.33,1.231,0.396,1.89c0.466,4.595-2.566,8.727-6.771,9.228c-0.733,0.087-1.454,0.059-2.146-0.073
		c-1.979-1.138-3.588-2.836-3.822-3.754C48.204,24.405,50.38,18.147,53.837,17.102L53.837,17.102z"/>
	<path fill-rule="evenodd" clip-rule="evenodd" fill="#1A0000" d="M56.251,18.965c2.693-0.023,4.896,2.343,4.922,5.285
		c0.025,2.942-2.136,5.347-4.829,5.37c-2.692,0.023-4.896-2.343-4.922-5.285C51.396,21.393,53.559,18.989,56.251,18.965
		L56.251,18.965z"/>
	<path fill-rule="evenodd" clip-rule="evenodd" fill="#FFFF79" d="M53.678,19.588c1.059-0.009,1.924,0.921,1.935,2.078
		c0.01,1.156-0.84,2.102-1.898,2.11c-1.058,0.009-1.924-0.92-1.935-2.077C51.77,20.543,52.62,19.598,53.678,19.588L53.678,19.588z"
		/>
	<path fill-rule="evenodd" clip-rule="evenodd" fill="#1A0000" d="M24.97,24.45c2.679-0.271,5.09,1.884,5.386,4.812
		c0.295,2.928-1.637,5.52-4.316,5.79c-2.679,0.271-5.091-1.884-5.386-4.812C20.358,27.313,22.291,24.72,24.97,24.45L24.97,24.45z"/>
	<path fill-rule="evenodd" clip-rule="evenodd" fill="#FFFF79" d="M22.464,25.306c1.053-0.106,2.001,0.741,2.117,1.892
		c0.116,1.151-0.644,2.169-1.697,2.276s-2-0.741-2.117-1.891C20.651,26.432,21.411,25.413,22.464,25.306L22.464,25.306z"/>
</g>
</svg>
