<?xml version="1.0" encoding="utf-8"?>
<!-- Generator: Adobe Illustrator 15.0.0, SVG Export Plug-In . SVG Version: 6.00 Build 0)  -->
<!DOCTYPE svg PUBLIC "-//W3C//DTD SVG 1.1//EN" "http://www.w3.org/Graphics/SVG/1.1/DTD/svg11.dtd">
<svg version="1.1" id="Ebene_1" xmlns="http://www.w3.org/2000/svg" xmlns:xlink="http://www.w3.org/1999/xlink" x="0px" y="0px"
	 width="82.559px" height="73.09px" viewBox="0 0 82.559 73.09" enable-background="new 0 0 82.559 73.09" xml:space="preserve">
<g>
	<path fill="#bbbbbb" d="M51.688,19.09c2.806-3.677,6.003-7.385,9.229-10.683C64.173,5.079,71.053-1.798,76.23,0.439
		c1.42,0.614,2.41,1.766,3.008,3.171c2.987,7.023,2.729,19.745,1.879,27.325c-0.176,1.561-1.493,2.723-3.063,2.701
		c-4.321-0.06-9.198-0.61-13.396-1.536c-5.666-1.25-13.897-4.151-13.592-11.296C51.095,20.155,51.294,19.606,51.688,19.09
		L51.688,19.09z"/>
	<path fill="#bbbbbb" d="M54.104,20.934c0,0,18.746-24.58,22.338-16.134c3.593,8.446,1.654,25.797,1.654,25.797
		S53.705,30.253,54.104,20.934L54.104,20.934z"/>
	<path fill="#bbbbbb" d="M54.104,20.934c0,0,4.662-6.112,9.781-11.193c4.827-4.582,9.795-7.823,11.469-3.885
		c3.054,7.179,2.112,20.787,1.762,24.711C72.569,30.383,53.753,29.128,54.104,20.934L54.104,20.934z"/>
	<path fill="#bbbbbb" d="M54.61,24.045c2.668-3.392,5.542-6.742,8.56-9.823c2.084-2.128,4.426-4.343,6.901-6.003
		c1.965-1.316,4.709-2.731,7.09-1.7c1.133,0.49,1.901,1.42,2.379,2.537c0.057,0.134,0.093,0.254,0.118,0.398
		c0.325,1.823,0.523,3.676,0.646,5.523c0.239,3.588,0.205,7.229,0.015,10.82c-0.088,1.661-0.199,3.352-0.385,5.005
		c-0.104,0.95-0.908,1.658-1.864,1.646c-1.395-0.021-2.818-0.113-4.208-0.225c-2.997-0.243-6.024-0.641-8.962-1.291
		c-3.367-0.746-7.474-2.018-10.075-4.37C54.101,25.907,54.007,24.811,54.61,24.045L54.61,24.045z"/>
	<path fill="#bbbbbb" d="M77.836,9.779c1.592,8.891,0.26,20.817,0.26,20.817s-16.303-0.231-22.032-5.409
		C59.211,21.187,74.615,2.208,77.836,9.779L77.836,9.779z"/>
	<path fill="#bbbbbb" d="M77.865,9.947c1.546,8.872,0.23,20.649,0.23,20.649s-12.354-0.176-19.332-3.637
		C61.589,23.381,72.434,10.102,77.865,9.947L77.865,9.947z"/>
	<path fill="#bbbbbb" d="M32.465,24.237c0.447,1.035,0.674,2.137,0.658,3.265c-0.073,5.267-5.306,9.495-9.322,12.139
		c-3.59,2.361-7.95,4.617-11.964,6.215c-1.459,0.581-3.105-0.033-3.825-1.43c-3.5-6.778-8.283-18.569-8-26.196
		c0.057-1.525,0.571-2.956,1.678-4.036c4.038-3.938,12.919,0.031,17.149,1.978c4.19,1.929,8.502,4.251,12.435,6.685
		C31.826,23.199,32.208,23.641,32.465,24.237L32.465,24.237z"/>
	<path fill="#bbbbbb" d="M29.675,25.442c0,0-26.285-16.271-26.625-7.099c-0.341,9.172,7.662,24.689,7.662,24.689
		S33.374,34.005,29.675,25.442L29.675,25.442z"/>
	<path fill="#bbbbbb" d="M3.068,18.125c-0.006,0.072-0.016,0.142-0.018,0.218c-0.341,9.172,7.662,24.689,7.662,24.689
		S27.107,36.5,29.728,29.277c0.141-0.904,0.047-1.815-0.345-2.72C29.383,26.557,6.037,12.106,3.068,18.125L3.068,18.125z"/>
	<path fill="#bbbbbb" d="M1.677,23.424c0.045-1.213,0.432-2.357,1.315-3.219c1.855-1.813,4.925-1.47,7.229-0.942
		c2.906,0.667,5.885,1.9,8.591,3.145c3.918,1.801,7.798,3.905,11.501,6.121c0.836,0.5,1.141,1.558,0.698,2.427
		c-1.592,3.125-4.973,5.779-7.853,7.677c-2.512,1.656-5.198,3.109-7.911,4.404c-1.257,0.602-2.556,1.196-3.851,1.713
		c-0.888,0.354-1.891-0.021-2.329-0.871C8.305,42.4,7.597,40.861,6.922,39.34c-1.459-3.285-2.791-6.674-3.848-10.111
		c-0.545-1.77-1.021-3.571-1.366-5.39C1.68,23.695,1.671,23.57,1.677,23.424L1.677,23.424z"/>
	<path fill="#bbbbbb" d="M3.525,23.493c1.687,8.873,7.188,19.539,7.188,19.539s15.146-6.035,18.65-12.916
		C24.994,27.501,3.832,15.27,3.525,23.493L3.525,23.493z"/>
	<path fill="#bbbbbb" d="M3.581,23.779c1.748,8.814,7.131,19.253,7.131,19.253s8.359-3.332,14.095-7.866
		c0.531-0.644,0.979-1.301,1.317-1.965C22.802,31.212,9.769,23.664,3.581,23.779L3.581,23.779z"/>
	<path fill="#bbbbbb" d="M32.71,70.726C16.124,69.728,9.929,60.411,5.659,37.241c-0.06-0.32,2.669,2.449,4.916,1.678
		c2.367-0.813,4.264-5.172,4.278-5.515c0.194-4.52-5.738-6.461-1.042-9.529c8.165-5.333,20.259-8.52,26.298-9.717
		c0.023-0.004,0.045-0.008,0.069-0.013c6.324-1.08,19.564-2.49,29.224-0.029c4.942,1.258-5.321,7.26-3.658,11.107
		c0.192,0.447,8.454,1.8,12.688,1.197c1.583-0.226,2.133-3.188,2.165-3.009c3.878,20.996,2.546,31.833-8.874,38.761
		C62.327,67.879,43.939,71.404,32.71,70.726L32.71,70.726z"/>
	<path fill="#bbbbbb" d="M50.043,66.933c-29.181,4.278-36.531-1.771-41.768-30.175c-1.572-8.535,15.005-16.549,32.351-19.989
		c17.43-2.977,35.775-1.408,37.354,7.126C83.236,52.357,79.19,60.436,50.043,66.933L50.043,66.933z"/>
	<path fill="#bbbbbb" d="M50.043,66.933c-29.18,4.28-36.531-1.771-41.768-30.175c-1.12-6.079,6.967-11.892,17.979-15.978
		c3.563-1.16,7.353-2.142,11.178-2.9c17.43-2.978,35.777-1.408,37.354,7.125c4.286,23.205,2.386,32.861-14.257,39.156
		C57.467,65.146,53.987,66.054,50.043,66.933L50.043,66.933z"/>
	<path fill="#bbbbbb" d="M74.894,25.597c0.701,3.854,1.228,7.33,1.535,10.474c-1.15,5.092-5.337,8.883-10.358,8.928
		c-5.949,0.051-10.818-5.179-10.876-11.679c-0.057-6.501,4.723-11.813,10.671-11.866C67.892,21.436,71.568,23.317,74.894,25.597
		L74.894,25.597z"/>
	<path fill="#bbbbbb" d="M44.747,67.62C19.941,70.355,13.18,63.361,8.277,36.759c-0.831-4.51,3.406-8.873,10.145-12.493
		c0.006,0.075,2.354,29.064,10.833,30.141C35.44,55.191,47.581,61.299,44.747,67.62L44.747,67.62z"/>
	<path fill="#bbbbbb" d="M11.091,29.535c1.784-1.871,4.304-3.645,7.329-5.27c0.006,0.075,2.354,29.065,10.833,30.142
		C33.93,55,42.006,58.635,44.448,63.103c-22.295,1.806-28.691-5.692-33.386-31.157C10.914,31.137,10.929,30.332,11.091,29.535
		L11.091,29.535z"/>
	<path fill="#bbbbbb" d="M46.468,48.724c3.142-4.515,7.847-9.103,13.267-6.571c4.127,1.93,6.783,7.535,7.635,12.146
		c0.133,0.717,0.199,1.443,0.201,2.168c0.015,4.271-2.179,7.934-4.98,10.549c-3.237,3.02-7.448,4.871-11.648,5.646
		c-4.199,0.774-8.795,0.549-12.896-1.117c-3.551-1.441-6.906-4.082-8.418-8.076c-0.257-0.678-0.453-1.381-0.585-2.098
		c-0.365-1.973-0.478-4.084-0.318-6.067c0.219-2.741,0.993-5.527,2.737-7.494c1.854-2.09,4.373-2.763,7.013-2.415
		C41.181,45.752,43.976,47.131,46.468,48.724L46.468,48.724z"/>
	<path fill="#bbbbbb" d="M47.219,52.497c9.938-16.331,18.923-4.842,20.149,1.805s-7.738,13.871-16.943,15.57
		c-5.788,1.065-12.31-0.234-16.659-3c-2.567-1.634-4.379-3.775-4.835-6.244C27.705,53.982,31.806,41.377,47.219,52.497
		L47.219,52.497z"/>
	<path fill="#bbbbbb" d="M50.425,69.87c-5.788,1.069-12.309-0.232-16.659-2.998c-2.569-1.634-4.38-3.775-4.834-6.244
		c-0.928-5.022,1.19-13.447,8.938-12.461c1.105,1.057,1.886,2.754,2.172,5.178c0,0-3.183,8.313,1.374,8.063s6.695-4.146,6.695-4.146
		l6.891,1.707c0,0-2.162,2.797-4.142,2.172c-1.979-0.625-2.221-1.111-2.221-1.111s-1.84,3.055-2.812,3.088
		C44.856,63.152,42.199,69.849,50.425,69.87L50.425,69.87z"/>
	<path fill="#bbbbbb" d="M46.334,44.012c6.427-1.186,10.918-3.029,11.449-0.146s-3.675,9.284-10.103,10.471
		c-6.427,1.186-12.641-3.293-13.173-6.176C33.977,45.279,39.907,45.198,46.334,44.012L46.334,44.012z"/>
	<path fill="#bbbbbb" d="M19.241,28.069c5.727-1.611,11.799,2.156,13.56,8.414s-1.456,12.639-7.182,14.25
		c-5.728,1.611-11.8-2.156-13.561-8.414c-3.445,3.838-5.565,2-5.081,0.004C7.89,38.566,15.502,29.122,19.241,28.069L19.241,28.069z"
		/>
	<path fill="#bbbbbb" d="M22.938,29.639c-4.991-0.053-11.363,6.564-11.26,9.63c0.104,3.065,6.929,9.821,11.92,9.875
		s9.794-7.306,9.714-9.646C33.233,37.157,27.929,29.692,22.938,29.639L22.938,29.639z"/>
	<path fill="#bbbbbb" d="M22.938,29.639c-3.012-0.032-6.526,2.366-8.817,4.946c-0.027,0.87,0.037,1.761,0.203,2.662
		c1.155,6.277,6.772,10.59,12.546,9.633c1.007-0.166,1.951-0.482,2.819-0.924c2.188-2.273,3.668-5.149,3.624-6.457
		C33.233,37.157,27.929,29.692,22.938,29.639L22.938,29.639z"/>
	<path fill="#bbbbbb" d="M48.869,53.554c0.783,4.247-2.025,8.329-6.273,9.112c-4.249,0.785-8.329-2.024-9.113-6.272
		c-0.139-0.751,0.361-1.478,1.113-1.616c0.751-0.139,1.478,0.361,1.616,1.112c0.506,2.741,3.138,4.555,5.88,4.048
		c2.742-0.506,4.555-3.139,4.049-5.88c-0.139-0.751,0.36-1.478,1.112-1.616C48.003,52.301,48.73,52.801,48.869,53.554L48.869,53.554
		z"/>
	<path fill="#bbbbbb" d="M48.869,53.554c0.506,2.741,3.139,4.554,5.881,4.048s4.554-3.139,4.048-5.88
		c-0.139-0.753,0.361-1.478,1.112-1.617c0.752-0.138,1.478,0.36,1.615,1.112c0.784,4.248-2.024,8.33-6.272,9.113
		c-0.063,0.012-0.127,0.023-0.19,0.033c-4.179,0.668-8.149-2.121-8.922-6.306c-0.139-0.751,0.36-1.478,1.112-1.616
		C48.003,52.301,48.73,52.801,48.869,53.554L48.869,53.554z"/>
	<path fill="#bbbbbb" d="M52.958,45.396c0.827-0.541,1.709-0.657,1.97-0.258s-0.198,1.159-1.025,1.7
		c-0.826,0.541-1.709,0.658-1.97,0.259S52.131,45.938,52.958,45.396L52.958,45.396z"/>
	<path fill="#bbbbbb" d="M44.001,19.516c0.384,1.079,1.525,1.933-1.242,2.917c-2.769,0.984-5.325,0.908-5.708-0.171
		C35.678,18.403,43.14,17.093,44.001,19.516L44.001,19.516z"/>
	<path fill="#bbbbbb" d="M37.434,25.517c0.21,0.591,0.836,1.058-0.68,1.597c-1.517,0.54-2.915,0.498-3.125-0.094
		C32.877,24.907,36.962,24.19,37.434,25.517L37.434,25.517z"/>
	<path fill="#bbbbbb" d="M50.365,23.153c0.21,0.59,0.835,1.058-0.682,1.597c-1.516,0.539-2.915,0.498-3.125-0.094
		C45.807,22.543,49.893,21.826,50.365,23.153L50.365,23.153z"/>
	<path fill="#bbbbbb" d="M46.17,28.395c0.384,1.08,1.524,1.933-1.243,2.917s-5.324,0.908-5.708-0.171
		C37.846,27.282,45.308,25.972,46.17,28.395L46.17,28.395z"/>
	<path fill="#bbbbbb" d="M58.907,15.203l-7.488,15.801l2.147-16.118C53.567,14.886,58.14,13.992,58.907,15.203L58.907,15.203z"/>
	<path fill="#bbbbbb" d="M23.513,21.683L34.87,34.377l-6.399-14.701C28.471,19.676,23.852,20.29,23.513,21.683L23.513,21.683z"/>
	<path fill="#bbbbbb" d="M17.438,63.601l8.836-7.265L15.21,58.588C15.21,58.588,16.043,63.273,17.438,63.601L17.438,63.601z"/>
	<path fill="#bbbbbb" d="M77.25,54.417l-8.836-7.265l10.876,2.321C79.291,49.473,78.646,54.086,77.25,54.417L77.25,54.417z"/>
	<path fill="#bbbbbb" d="M65.087,19.453c-5.948,0.052-10.728,5.365-10.67,11.866c0.057,6.5,4.926,11.729,10.875,11.678
		s10.728-5.365,10.671-11.866c4.38,2.723,5.903,0.367,4.88-1.416C78.918,26.363,68.972,19.419,65.087,19.453L65.087,19.453z"/>
	<path fill="#bbbbbb" d="M61.976,21.993c4.777-1.444,12.745,3.13,13.501,6.104c0.757,2.973-3.91,11.366-8.688,12.81
		c-4.777,1.444-11.444-4.281-12.021-6.55C54.189,32.086,57.199,23.437,61.976,21.993L61.976,21.993z"/>
	<path fill="#bbbbbb" d="M61.976,21.993c2.884-0.871,6.929,0.45,9.851,2.288c0.269,0.827,0.454,1.701,0.548,2.611
		c0.643,6.351-3.547,12.062-9.357,12.754c-1.014,0.121-2.01,0.081-2.967-0.101c-2.734-1.573-4.96-3.92-5.282-5.189
		C54.189,32.086,57.199,23.437,61.976,21.993L61.976,21.993z"/>
	<path fill="#bbbbbb" d="M65.313,24.568c3.723-0.033,6.769,3.238,6.804,7.304c0.034,4.067-2.953,7.39-6.676,7.421
		c-3.722,0.033-6.767-3.237-6.803-7.304C58.603,27.923,61.591,24.601,65.313,24.568L65.313,24.568z"/>
	<path fill="#bbbbbb" d="M61.756,25.429c1.463-0.013,2.66,1.272,2.674,2.871c0.014,1.598-1.161,2.905-2.624,2.917
		c-1.462,0.013-2.659-1.273-2.674-2.871C59.119,26.748,60.293,25.442,61.756,25.429L61.756,25.429z"/>
	<path fill="#bbbbbb" d="M22.078,32.148c3.704-0.373,7.035,2.604,7.443,6.649c0.408,4.047-2.263,7.629-5.966,8.002
		s-7.036-2.604-7.443-6.649C15.705,36.105,18.375,32.522,22.078,32.148L22.078,32.148z"/>
	<path fill="#bbbbbb" d="M18.616,33.332c1.455-0.147,2.765,1.023,2.926,2.614c0.16,1.59-0.891,2.999-2.346,3.146
		c-1.454,0.146-2.765-1.023-2.925-2.614C16.11,34.887,17.16,33.479,18.616,33.332L18.616,33.332z"/>
</g>
</svg>
