<?xml version="1.0" encoding="utf-8"?>
<!-- Generator: Adobe Illustrator 15.0.0, SVG Export Plug-In . SVG Version: 6.00 Build 0)  -->
<!DOCTYPE svg PUBLIC "-//W3C//DTD SVG 1.1//EN" "http://www.w3.org/Graphics/SVG/1.1/DTD/svg11.dtd">
<svg version="1.1" id="Ebene_1" xmlns="http://www.w3.org/2000/svg" xmlns:xlink="http://www.w3.org/1999/xlink" x="0px" y="0px"
	 width="82.559px" height="73.092px" viewBox="0 0 82.559 73.092" enable-background="new 0 0 82.559 73.092" xml:space="preserve">
<path fill="#FFFFFF" d="M71.094,30.227c0.44-5.667,0.359-13.56-1.598-18.164c-0.444-1.044-1.181-1.902-2.236-2.357
	c-3.849-1.663-8.962,3.45-11.383,5.924c-1.008,1.03-2.007,2.122-2.988,3.235c-4.872-0.024-9.588,0.546-12.429,1.031
	c-0.018,0.002-0.033,0.005-0.051,0.01c-2.809,0.557-7.38,1.693-11.896,3.437c-1.303-0.685-2.616-1.342-3.915-1.94
	c-3.145-1.447-9.747-4.397-12.749-1.471c-0.822,0.803-1.206,1.866-1.247,3c-0.181,4.855,2.401,11.972,4.779,17.083
	c3.167,15.068,7.929,21.242,19.529,21.941c0.868,0.052,1.805,0.063,2.774,0.049c0.391,0.205,0.788,0.396,1.19,0.56
	c3.05,1.238,6.465,1.407,9.586,0.83c3.123-0.574,6.253-1.952,8.66-4.197c0.298-0.278,0.583-0.575,0.859-0.884
	c2.241-0.803,4.276-1.712,5.929-2.715C71.749,50.84,73.191,43.6,71.094,30.227z"/>
</svg>
