<svg xmlns="http://www.w3.org/2000/svg" width="82.559" height="73.092" viewBox="0 0 82.559 73.092"><path fill="#FFF" d="M71.094 30.227c.44-5.667.359-13.56-1.598-18.164-.444-1.044-1.181-1.902-2.236-2.357-3.849-1.663-8.962 3.45-11.383 5.924a84.9 84.9 0 00-2.988 3.235c-4.872-.024-9.588.546-12.429 1.031a.306.306 0 00-.051.01c-2.809.557-7.38 1.693-11.896 3.437a83.546 83.546 0 00-3.915-1.94c-3.145-1.447-9.747-4.397-12.749-1.471-.822.803-1.206 1.866-1.247 3-.181 4.855 2.401 11.972 4.779 17.083 3.167 15.068 7.929 21.242 19.529 21.941.868.052 1.805.063 2.774.049.391.205.788.396 1.19.56 3.05 1.238 6.465 1.407 9.586.83 3.123-.574 6.253-1.952 8.66-4.197.298-.278.583-.575.859-.884 2.241-.803 4.276-1.712 5.929-2.715 7.841-4.759 9.283-11.999 7.186-25.372z"/></svg>