<?xml version="1.0" encoding="utf-8"?>
<!-- Generator: Adobe Illustrator 15.0.0, SVG Export Plug-In . SVG Version: 6.00 Build 0)  -->
<!DOCTYPE svg PUBLIC "-//W3C//DTD SVG 1.1//EN" "http://www.w3.org/Graphics/SVG/1.1/DTD/svg11.dtd">
<svg version="1.1" id="Ebene_1" xmlns="http://www.w3.org/2000/svg" xmlns:xlink="http://www.w3.org/1999/xlink" x="0px" y="0px"
	 width="82.559px" height="73.091px" viewBox="0 0 82.559 73.091" enable-background="new 0 0 82.559 73.091" xml:space="preserve">
<g>
	<path fill-rule="evenodd" clip-rule="evenodd" fill="#1A0000" d="M51.688,19.09c2.805-3.677,6.003-7.385,9.229-10.683
		c3.256-3.328,10.136-10.205,15.313-7.968c1.42,0.614,2.41,1.766,3.008,3.171c2.987,7.023,2.728,19.745,1.878,27.325
		c-0.175,1.561-1.493,2.723-3.063,2.701c-4.321-0.06-9.198-0.61-13.396-1.536c-5.666-1.25-13.897-4.151-13.591-11.296
		C51.095,20.155,51.294,19.606,51.688,19.09L51.688,19.09z"/>
	<path fill-rule="evenodd" clip-rule="evenodd" fill="#F3CE93" d="M54.104,20.934c0,0,18.746-24.58,22.338-16.134
		c3.592,8.446,1.654,25.797,1.654,25.797S53.705,30.253,54.104,20.934L54.104,20.934z"/>
	<path fill-rule="evenodd" clip-rule="evenodd" fill="#E8A034" d="M54.104,20.934c0,0,4.662-6.112,9.781-11.193
		c4.827-4.582,9.795-7.823,11.469-3.885c3.053,7.179,2.112,20.787,1.761,24.711C72.569,30.383,53.753,29.128,54.104,20.934
		L54.104,20.934z"/>
	<path fill-rule="evenodd" clip-rule="evenodd" fill="#1A0000" d="M54.61,24.045c2.668-3.392,5.542-6.742,8.559-9.823
		c2.084-2.128,4.426-4.343,6.902-6.003c1.964-1.316,4.709-2.731,7.089-1.7c1.133,0.49,1.902,1.42,2.379,2.537
		c0.057,0.134,0.093,0.254,0.118,0.398c0.326,1.823,0.524,3.676,0.647,5.523c0.239,3.588,0.205,7.229,0.015,10.82
		c-0.088,1.661-0.2,3.352-0.385,5.005c-0.105,0.95-0.908,1.658-1.864,1.645c-1.395-0.02-2.819-0.113-4.208-0.225
		c-2.997-0.243-6.025-0.641-8.962-1.291c-3.368-0.746-7.474-2.018-10.076-4.37C54.101,25.907,54.007,24.811,54.61,24.045
		L54.61,24.045z"/>
	<path fill-rule="evenodd" clip-rule="evenodd" fill="#7E6F53" d="M77.836,9.779c1.592,8.891,0.26,20.817,0.26,20.817
		s-16.303-0.231-22.032-5.409C59.211,21.187,74.615,2.208,77.836,9.779L77.836,9.779z"/>
	<path fill-rule="evenodd" clip-rule="evenodd" fill="#AC9871" d="M77.865,9.947c1.546,8.872,0.231,20.649,0.231,20.649
		s-12.354-0.176-19.332-3.637C61.589,23.381,72.434,10.102,77.865,9.947L77.865,9.947z"/>
	<path fill-rule="evenodd" clip-rule="evenodd" fill="#1A0000" d="M32.465,24.237c0.447,1.035,0.674,2.137,0.658,3.265
		c-0.073,5.267-5.305,9.495-9.322,12.139c-3.59,2.362-7.95,4.617-11.964,6.215c-1.459,0.581-3.105-0.034-3.825-1.43
		C4.512,37.648-0.271,25.857,0.012,18.23c0.057-1.525,0.571-2.956,1.678-4.036c4.038-3.938,12.919,0.031,17.149,1.978
		c4.191,1.929,8.502,4.251,12.435,6.685C31.826,23.199,32.208,23.641,32.465,24.237L32.465,24.237z"/>
	<path fill-rule="evenodd" clip-rule="evenodd" fill="#F3CE93" d="M29.675,25.442c0,0-26.285-16.271-26.625-7.099
		c-0.341,9.172,7.662,24.688,7.662,24.688S33.374,34.005,29.675,25.442L29.675,25.442z"/>
	<path fill-rule="evenodd" clip-rule="evenodd" fill="#E8A034" d="M3.068,18.125c-0.006,0.072-0.016,0.142-0.018,0.218
		c-0.341,9.172,7.662,24.688,7.662,24.688S27.107,36.5,29.728,29.277c0.14-0.904,0.047-1.815-0.345-2.72
		C29.383,26.557,6.037,12.106,3.068,18.125L3.068,18.125z"/>
	<path fill-rule="evenodd" clip-rule="evenodd" fill="#1A0000" d="M1.677,23.424c0.045-1.213,0.432-2.357,1.315-3.219
		c1.856-1.813,4.925-1.47,7.229-0.942c2.906,0.667,5.885,1.9,8.591,3.145c3.918,1.801,7.798,3.905,11.501,6.121
		c0.836,0.5,1.14,1.558,0.698,2.427c-1.592,3.125-4.973,5.779-7.853,7.678c-2.511,1.655-5.198,3.108-7.911,4.404
		c-1.257,0.601-2.555,1.196-3.85,1.712c-0.888,0.354-1.891-0.021-2.329-0.871c-0.763-1.479-1.471-3.018-2.146-4.538
		c-1.459-3.286-2.791-6.675-3.848-10.112c-0.544-1.77-1.021-3.571-1.366-5.39C1.68,23.695,1.671,23.57,1.677,23.424L1.677,23.424z"
		/>
	<path fill-rule="evenodd" clip-rule="evenodd" fill="#7E6F53" d="M3.525,23.493c1.686,8.873,7.187,19.539,7.187,19.539
		s15.146-6.035,18.651-12.916C24.994,27.501,3.832,15.27,3.525,23.493L3.525,23.493z"/>
	<path fill-rule="evenodd" clip-rule="evenodd" fill="#AC9871" d="M3.581,23.779c1.748,8.814,7.131,19.253,7.131,19.253
		s8.36-3.332,14.095-7.866c0.531-0.644,0.979-1.301,1.317-1.965C22.802,31.212,9.769,23.664,3.581,23.779L3.581,23.779z"/>
	<path fill-rule="evenodd" clip-rule="evenodd" fill="#1A0000" d="M32.71,70.726C16.124,69.728,9.929,60.41,5.659,37.24
		c-0.059-0.319,2.669,2.45,4.916,1.678c2.368-0.813,4.264-5.172,4.279-5.514c0.194-4.52-5.739-6.461-1.042-9.529
		c8.165-5.333,20.259-8.52,26.298-9.717c0.023-0.004,0.045-0.008,0.069-0.013c6.324-1.08,19.564-2.49,29.224-0.029
		c4.942,1.258-5.322,7.26-3.659,11.107c0.193,0.447,8.454,1.8,12.688,1.197c1.583-0.226,2.133-3.188,2.165-3.009
		c3.878,20.996,2.546,31.833-8.874,38.762C62.327,67.88,43.939,71.404,32.71,70.726L32.71,70.726z"/>
	<path fill-rule="evenodd" clip-rule="evenodd" fill="#F3CE93" d="M50.043,66.933c-29.18,4.279-36.531-1.77-41.767-30.175
		c-1.573-8.535,15.005-16.549,32.35-19.989c17.43-2.977,35.776-1.408,37.354,7.126C83.236,52.357,79.19,60.436,50.043,66.933
		L50.043,66.933z"/>
	<path fill-rule="evenodd" clip-rule="evenodd" fill="#E8A034" d="M50.043,66.933c-29.179,4.281-36.531-1.77-41.767-30.175
		c-1.12-6.079,6.966-11.892,17.979-15.978c3.564-1.16,7.353-2.142,11.178-2.9c17.43-2.978,35.777-1.408,37.354,7.125
		c4.286,23.204,2.386,32.86-14.256,39.156C57.467,65.146,53.987,66.054,50.043,66.933L50.043,66.933z"/>
	<path fill-rule="evenodd" clip-rule="evenodd" fill="#D3822A" d="M74.894,25.597c0.701,3.854,1.227,7.33,1.535,10.474
		c-1.15,5.091-5.337,8.883-10.358,8.927c-5.95,0.052-10.819-5.178-10.876-11.678c-0.057-6.501,4.722-11.813,10.67-11.866
		C67.892,21.436,71.568,23.317,74.894,25.597L74.894,25.597z"/>
	<path fill-rule="evenodd" clip-rule="evenodd" fill="#B35F1F" d="M44.747,67.619c-24.806,2.736-31.567-4.258-36.47-30.86
		c-0.831-4.51,3.406-8.873,10.144-12.493c0.006,0.075,2.355,29.065,10.833,30.141C35.44,55.191,47.581,61.3,44.747,67.619
		L44.747,67.619z"/>
	<path fill-rule="evenodd" clip-rule="evenodd" fill="#D3822A" d="M11.091,29.535c1.784-1.871,4.304-3.645,7.329-5.27
		c0.006,0.075,2.355,29.065,10.833,30.141C33.93,55,42.006,58.635,44.448,63.103c-22.294,1.805-28.691-5.693-33.385-31.157
		C10.914,31.137,10.929,30.332,11.091,29.535L11.091,29.535z"/>
	<path fill-rule="evenodd" clip-rule="evenodd" fill="#1A0000" d="M46.468,48.724c3.142-4.514,7.847-9.103,13.267-6.571
		c4.127,1.929,6.783,7.535,7.634,12.147c0.133,0.716,0.2,1.442,0.202,2.167c0.014,4.271-2.179,7.934-4.981,10.549
		c-3.237,3.02-7.448,4.871-11.648,5.646s-8.795,0.549-12.897-1.117c-3.551-1.441-6.906-4.082-8.418-8.076
		c-0.257-0.678-0.453-1.381-0.585-2.097c-0.365-1.973-0.477-4.085-0.318-6.068c0.219-2.741,0.993-5.527,2.737-7.494
		c1.854-2.09,4.373-2.762,7.013-2.415C41.181,45.752,43.976,47.131,46.468,48.724L46.468,48.724z"/>
	<path fill-rule="evenodd" clip-rule="evenodd" fill="#ECD19C" d="M47.219,52.497c9.938-16.331,18.923-4.842,20.149,1.804
		c1.227,6.646-7.738,13.871-16.943,15.57c-5.788,1.066-12.31-0.234-16.659-3c-2.568-1.633-4.379-3.775-4.835-6.243
		C27.705,53.982,31.806,41.377,47.219,52.497L47.219,52.497z"/>
	<path fill-rule="evenodd" clip-rule="evenodd" fill="#AC9871" d="M50.425,69.869c-5.788,1.07-12.309-0.232-16.659-2.998
		c-2.569-1.633-4.38-3.775-4.834-6.243c-0.928-5.023,1.19-13.448,8.937-12.461c1.106,1.056,1.886,2.754,2.172,5.178
		c0,0-3.182,8.311,1.374,8.061c4.557-0.25,6.696-4.145,6.696-4.145l6.89,1.706c0,0-2.162,2.797-4.141,2.172
		s-2.221-1.111-2.221-1.111s-1.84,3.055-2.812,3.088C44.856,63.152,42.199,69.849,50.425,69.869L50.425,69.869z"/>
	<path fill-rule="evenodd" clip-rule="evenodd" fill="#1A0000" d="M46.334,44.012c6.427-1.186,10.918-3.029,11.449-0.146
		c0.532,2.882-3.674,9.284-10.102,10.47c-6.427,1.186-12.641-3.292-13.173-6.175C33.977,45.279,39.907,45.198,46.334,44.012
		L46.334,44.012z"/>
	<path fill-rule="evenodd" clip-rule="evenodd" fill="#1A0000" d="M19.241,28.069c5.727-1.611,11.799,2.156,13.56,8.414
		c1.761,6.258-1.456,12.639-7.182,14.25c-5.727,1.611-11.799-2.156-13.56-8.414c-3.445,3.838-5.566,2-5.081,0.003
		C7.89,38.566,15.502,29.122,19.241,28.069L19.241,28.069z"/>
	<path fill-rule="evenodd" clip-rule="evenodd" fill="#FFFF00" d="M22.938,29.639c-4.991-0.053-11.364,6.564-11.26,9.63
		c0.104,3.065,6.929,9.822,11.92,9.875c4.991,0.053,9.794-7.306,9.714-9.646C33.233,37.157,27.929,29.692,22.938,29.639
		L22.938,29.639z"/>
	<path fill-rule="evenodd" clip-rule="evenodd" fill="#FFFF79" d="M22.938,29.639c-3.012-0.032-6.527,2.366-8.818,4.946
		c-0.027,0.87,0.037,1.761,0.203,2.661c1.156,6.278,6.773,10.591,12.546,9.634c1.007-0.167,1.952-0.483,2.82-0.925
		c2.187-2.273,3.668-5.149,3.624-6.457C33.233,37.157,27.929,29.692,22.938,29.639L22.938,29.639z"/>
	<path fill-rule="evenodd" clip-rule="evenodd" fill="#1A0000" d="M48.869,53.554c0.784,4.248-2.025,8.329-6.273,9.113
		c-4.249,0.784-8.329-2.025-9.113-6.273c-0.139-0.751,0.361-1.478,1.113-1.616c0.751-0.139,1.477,0.361,1.616,1.112
		c0.506,2.742,3.138,4.555,5.88,4.048c2.742-0.506,4.555-3.138,4.049-5.88c-0.139-0.751,0.36-1.478,1.112-1.616
		C48.003,52.302,48.73,52.802,48.869,53.554L48.869,53.554z"/>
	<path fill-rule="evenodd" clip-rule="evenodd" fill="#1A0000" d="M48.869,53.554c0.506,2.742,3.139,4.554,5.881,4.048
		c2.742-0.506,4.554-3.138,4.048-5.88c-0.139-0.752,0.361-1.478,1.112-1.617c0.752-0.138,1.478,0.361,1.616,1.113
		c0.784,4.248-2.025,8.329-6.273,9.113c-0.063,0.012-0.127,0.023-0.19,0.033c-4.179,0.667-8.15-2.121-8.922-6.306
		c-0.139-0.751,0.36-1.478,1.112-1.616C48.003,52.302,48.73,52.802,48.869,53.554L48.869,53.554z"/>
	<path fill-rule="evenodd" clip-rule="evenodd" fill="#F3CE93" d="M52.958,45.396c0.827-0.541,1.709-0.657,1.97-0.258
		s-0.198,1.16-1.025,1.701s-1.709,0.657-1.97,0.258S52.131,45.938,52.958,45.396L52.958,45.396z"/>
	<path fill-rule="evenodd" clip-rule="evenodd" fill="#1A0000" d="M44.001,19.516c0.384,1.079,1.526,1.933-1.242,2.917
		c-2.769,0.984-5.325,0.908-5.708-0.171C35.678,18.403,43.14,17.093,44.001,19.516L44.001,19.516z"/>
	<path fill-rule="evenodd" clip-rule="evenodd" fill="#1A0000" d="M37.434,25.517c0.21,0.591,0.836,1.058-0.68,1.597
		c-1.516,0.54-2.915,0.498-3.125-0.094C32.877,24.907,36.962,24.19,37.434,25.517L37.434,25.517z"/>
	<path fill-rule="evenodd" clip-rule="evenodd" fill="#1A0000" d="M50.365,23.153c0.21,0.59,0.835,1.058-0.681,1.597
		c-1.516,0.539-2.915,0.498-3.125-0.094C45.807,22.543,49.893,21.826,50.365,23.153L50.365,23.153z"/>
	<path fill-rule="evenodd" clip-rule="evenodd" fill="#1A0000" d="M46.17,28.395c0.384,1.08,1.525,1.933-1.243,2.917
		s-5.324,0.908-5.708-0.171C37.846,27.282,45.308,25.972,46.17,28.395L46.17,28.395z"/>
	<path fill-rule="evenodd" clip-rule="evenodd" fill="#1A0000" d="M58.907,15.203l-7.488,15.801l2.148-16.118
		C53.567,14.886,58.14,13.992,58.907,15.203L58.907,15.203z"/>
	<path fill-rule="evenodd" clip-rule="evenodd" fill="#1A0000" d="M23.513,21.683L34.87,34.377l-6.399-14.701
		C28.471,19.676,23.852,20.29,23.513,21.683L23.513,21.683z"/>
	<path fill-rule="evenodd" clip-rule="evenodd" fill="#1A0000" d="M17.438,63.601l8.836-7.265L15.21,58.588
		C15.21,58.588,16.043,63.273,17.438,63.601L17.438,63.601z"/>
	<path fill-rule="evenodd" clip-rule="evenodd" fill="#1A0000" d="M77.25,54.417l-8.836-7.265l10.876,2.321
		C79.291,49.473,78.646,54.087,77.25,54.417L77.25,54.417z"/>
	<path fill-rule="evenodd" clip-rule="evenodd" fill="#1A0000" d="M65.087,19.453c-5.948,0.052-10.727,5.365-10.67,11.866
		c0.057,6.5,4.926,11.729,10.875,11.678s10.728-5.365,10.671-11.866c4.38,2.723,5.903,0.367,4.88-1.416
		C78.918,26.363,68.972,19.419,65.087,19.453L65.087,19.453z"/>
	<path fill-rule="evenodd" clip-rule="evenodd" fill="#FFFF00" d="M61.976,21.993c4.777-1.444,12.745,3.13,13.501,6.104
		c0.757,2.973-3.91,11.366-8.688,12.81c-4.777,1.444-11.444-4.281-12.021-6.55C54.189,32.086,57.199,23.437,61.976,21.993
		L61.976,21.993z"/>
	<path fill-rule="evenodd" clip-rule="evenodd" fill="#FFFF79" d="M61.976,21.993c2.884-0.871,6.929,0.45,9.85,2.288
		c0.269,0.827,0.455,1.701,0.548,2.611c0.643,6.351-3.547,12.061-9.357,12.754c-1.014,0.121-2.01,0.081-2.967-0.101
		c-2.734-1.573-4.96-3.92-5.282-5.189C54.189,32.086,57.199,23.437,61.976,21.993L61.976,21.993z"/>
	<path fill-rule="evenodd" clip-rule="evenodd" fill="#1A0000" d="M65.313,24.568c3.722-0.033,6.768,3.238,6.803,7.304
		c0.035,4.067-2.953,7.39-6.675,7.422c-3.722,0.032-6.767-3.238-6.803-7.305C58.603,27.923,61.591,24.601,65.313,24.568
		L65.313,24.568z"/>
	<path fill-rule="evenodd" clip-rule="evenodd" fill="#FFFF79" d="M61.756,25.429c1.463-0.013,2.66,1.272,2.674,2.871
		c0.014,1.598-1.161,2.905-2.624,2.917c-1.462,0.013-2.659-1.273-2.674-2.871C59.119,26.748,60.293,25.442,61.756,25.429
		L61.756,25.429z"/>
	<path fill-rule="evenodd" clip-rule="evenodd" fill="#1A0000" d="M22.078,32.148c3.704-0.373,7.036,2.604,7.444,6.65
		s-2.263,7.629-5.966,8.002s-7.036-2.604-7.443-6.65C15.705,36.105,18.375,32.522,22.078,32.148L22.078,32.148z"/>
	<path fill-rule="evenodd" clip-rule="evenodd" fill="#FFFF79" d="M18.616,33.332c1.456-0.147,2.765,1.023,2.926,2.614
		c0.16,1.59-0.89,2.999-2.345,3.146c-1.455,0.147-2.765-1.023-2.925-2.614C16.11,34.887,17.16,33.479,18.616,33.332L18.616,33.332z"
		/>
</g>
</svg>
